<svg width="52" height="38" viewBox="0 0 52 38" fill="none" xmlns="http://www.w3.org/2000/svg">
<path d="M15.0699 26.5794C15.3137 26.1977 15.4339 25.4918 15.4339 24.4617C15.4339 23.5295 15.307 22.8844 15.0499 22.5264C14.7961 22.1718 14.3352 21.9928 13.6707 21.9928H12.699V27.1502H13.7676C14.392 27.1502 14.8261 26.961 15.0699 26.5794Z" fill="white"/>
<path d="M12.7021 36.9988H15.6241L13.9878 29.717H12.7021V36.9988Z" fill="white"/>
<path d="M44.3825 7.70313C34.231 -2.56771 17.7681 -2.56771 7.6132 7.70313C-0.21752 15.6233 -2.0074 27.343 2.24356 36.9992H9.99414V19.4263H13.9646C15.4539 19.4263 16.5325 19.8316 17.1937 20.6421C17.8583 21.4527 18.1889 22.7598 18.1889 24.56C18.1889 25.6746 18.0553 26.573 17.7881 27.262C17.521 27.951 17.0835 28.5082 16.4758 28.9338L18.4226 37.0025H20.3861V19.4263H23.1444V36.9992H27.1817C26.8644 36.8066 26.5772 36.5736 26.3201 36.2899C25.532 35.4219 25.1046 34.2195 25.0378 32.6794L27.6258 32.2876C27.6759 33.1894 27.8428 33.8547 28.1367 34.2837C28.4306 34.7126 28.858 34.9288 29.4224 34.9288C29.9166 34.9288 30.3173 34.77 30.6245 34.4559C30.9317 34.1418 31.0853 33.7264 31.0853 33.2097C31.0853 32.2842 30.3574 31.0886 28.8981 29.6228L28.6443 29.3661C27.2184 27.9239 26.3034 26.8161 25.8994 26.0427C25.4953 25.2693 25.2916 24.4485 25.2916 23.5805C25.2916 22.3275 25.699 21.2737 26.5105 20.4192C27.3253 19.5647 28.317 19.1358 29.4925 19.1358C30.6345 19.1358 31.5695 19.531 32.2975 20.3213C33.0255 21.1116 33.4429 22.1823 33.5498 23.5332L30.9017 23.9149C30.8516 23.1212 30.7147 22.5504 30.4843 22.2093C30.2538 21.8648 29.8999 21.6925 29.4224 21.6925C28.9849 21.6925 28.6343 21.8411 28.3705 22.1417C28.1067 22.4423 27.9764 22.8409 27.9764 23.3407C27.9764 24.3709 28.828 25.7185 30.5277 27.3802L30.6846 27.5389C31.9302 28.7683 32.7483 29.7714 33.139 30.5482C33.5264 31.325 33.7234 32.1998 33.7234 33.1657C33.7234 34.4593 33.326 35.5232 32.5346 36.3541C32.2875 36.6141 32.0203 36.8303 31.7332 37.0093H35.6201V19.4263H42.6862V21.9931H38.325V26.6473H41.4673V29.2141H38.325V34.5201H42.6862V36.9992H49.7555C54.0065 27.343 52.2166 15.6233 44.3825 7.70313Z" fill="white"/>
</svg>
